<svg width="47" height="55" viewBox="0 0 47 55" fill="none" xmlns="http://www.w3.org/2000/svg">
<path d="M4.25977 2.5H42.7402C42.9706 2.5 43.1773 2.54295 43.3799 2.62891L43.4482 2.65625C43.8195 2.8011 44.0581 2.99836 44.2393 3.25586C44.4225 3.51637 44.5 3.76606 44.5 4.07129V50.9287C44.5 51.2339 44.4225 51.4836 44.2393 51.7441C44.0581 52.0016 43.8195 52.1989 43.4482 52.3438L43.4209 52.3545L43.3945 52.3652C43.2921 52.4079 43.0911 52.4639 42.7402 52.4639C42.1812 52.4638 41.77 52.3025 41.3857 51.96L25.2236 36.5762L23.5 34.9355L21.7764 36.5762L5.61035 51.9619C5.17735 52.3495 4.75987 52.4999 4.25977 52.5C4.02941 52.5 3.8227 52.457 3.62012 52.3711L3.55176 52.3438L3.41895 52.2871C3.12189 52.1488 2.91933 51.9695 2.76074 51.7441C2.57749 51.4836 2.50002 51.2339 2.5 50.9287V4.07129C2.50002 3.76606 2.57749 3.51636 2.76074 3.25586C2.94191 2.99835 3.18048 2.8011 3.55176 2.65625L3.62012 2.62891C3.82271 2.54295 4.02942 2.5 4.25977 2.5Z" fill="#FBFFEE" stroke="#7C8950" stroke-width="5"/>
</svg>
