<svg width="47" height="55" viewBox="0 0 47 55" fill="none" xmlns="http://www.w3.org/2000/svg">
<path d="M42.7406 0C43.3036 0 43.8422 0.109055 44.3562 0.327165C45.1641 0.642212 45.8066 1.13902 46.284 1.81758C46.7613 2.49614 47 3.24741 47 4.07138V50.9286C47 51.7526 46.7613 52.5039 46.284 53.1824C45.8066 53.861 45.1641 54.3578 44.3562 54.6728C43.8911 54.8667 43.3526 54.9636 42.7406 54.9636C41.5656 54.9636 40.5497 54.5759 39.693 53.8004L23.5 38.3873L7.30703 53.8004C6.42578 54.6001 5.4099 55 4.25937 55C3.69635 55 3.15781 54.8909 2.64375 54.6728C1.83594 54.3578 1.19336 53.861 0.716016 53.1824C0.238672 52.5039 0 51.7526 0 50.9286V4.07138C0 3.24741 0.238672 2.49614 0.716016 1.81758C1.19336 1.13902 1.83594 0.642212 2.64375 0.327165C3.15781 0.109055 3.69635 0 4.25937 0H42.7406Z" fill="#7C8950"/>
</svg>
