<svg width="46" height="46" viewBox="0 0 46 46" fill="none" xmlns="http://www.w3.org/2000/svg">
<path d="M23 0.5C28.9674 0.5 34.6906 2.87028 38.9102 7.08984C43.1297 11.3094 45.5 17.0326 45.5 23C45.5 27.45 44.1803 31.7999 41.708 35.5C39.2357 39.2001 35.7217 42.0841 31.6104 43.7871C27.499 45.4901 22.9749 45.9356 18.6104 45.0674C14.2458 44.1992 10.2365 42.0568 7.08984 38.9102C3.94321 35.7635 1.80081 31.7542 0.932617 27.3896C0.0644499 23.0251 0.509919 18.501 2.21289 14.3896C3.91586 10.2783 6.79991 6.76432 10.5 4.29199C14.2001 1.81975 18.55 0.500001 23 0.5ZM23 7.86328C22.313 7.86328 21.6538 8.13632 21.168 8.62207C20.6822 9.10786 20.4093 9.76711 20.4092 10.4541V23C20.4092 23.6871 20.6821 24.3461 21.168 24.832C21.6539 25.3179 22.3129 25.5908 23 25.5908H31.3633C32.0503 25.5908 32.7094 25.3178 33.1953 24.832C33.6812 24.3461 33.9541 23.6871 33.9541 23C33.9541 22.3128 33.6812 21.6539 33.1953 21.168C32.7094 20.6822 32.0503 20.4092 31.3633 20.4092H25.5908V10.4541C25.5907 9.76711 25.3178 9.10786 24.832 8.62207C24.3462 8.13632 23.687 7.86328 23 7.86328Z" fill="#E5C695" stroke="#7C8950"/>
</svg>
