<svg width="27" height="37" viewBox="0 0 27 37" fill="none" xmlns="http://www.w3.org/2000/svg">
<path fill-rule="evenodd" clip-rule="evenodd" d="M1.92857 0.973684C1.92857 0.715447 1.82698 0.467787 1.64614 0.285186C1.4653 0.102584 1.22003 0 0.964286 0C0.708541 0 0.463271 0.102584 0.282432 0.285186C0.101593 0.467787 0 0.715447 0 0.973684V10.7105C0.000113735 11.5741 0.284294 12.4131 0.807907 13.0958C1.33152 13.7786 2.95863 14.4677 3.78659 14.6839L3.74016 34.0789C3.74016 34.8537 3.74016 34.7674 3.8689 36.1444C4.41142 36.6922 5.01848 37 5.78571 37C6.55295 37 7.11297 36.6922 7.65549 36.1444C7.83127 35.0526 7.83127 35.0526 7.83127 34.0789L7.71429 14.6053C9.37768 14.1729 11.5714 12.5255 11.5714 10.7105V0.973684C11.5714 0.715447 11.4698 0.467787 11.289 0.285186C11.1082 0.102584 10.8629 0 10.6071 0C10.3514 0 10.1061 0.102584 9.92529 0.285186C9.74445 0.467787 9.64286 0.715447 9.64286 0.973684V10.7105C9.64286 11.227 9.43967 11.7223 9.07799 12.0875C8.71631 12.4527 8.22577 12.6579 7.71429 12.6579H6.75V0.973684C6.75 0.715447 6.64841 0.467787 6.46757 0.285186C6.28673 0.102584 6.04146 0 5.78571 0C5.52997 0 5.2847 0.102584 5.10386 0.285186C4.92302 0.467787 4.82143 0.715447 4.82143 0.973684V12.6579H3.85714C3.34565 12.6579 2.85511 12.4527 2.49344 12.0875C2.13176 11.7223 1.92857 11.227 1.92857 10.7105V0.973684ZM4.82143 14.6053V34.0789C4.82143 34.3372 4.92302 34.5848 5.10386 34.7674C5.2847 34.9501 5.52997 35.0526 5.78571 35.0526C6.04146 35.0526 6.28673 34.9501 6.46757 34.7674C6.64841 34.5848 6.75 34.3372 6.75 34.0789V14.6053H4.82143ZM17.3571 5.84211C17.3571 4.80916 17.7635 3.81852 18.4869 3.08811C19.2102 2.35771 20.1913 1.94737 21.2143 1.94737C22.2373 1.94737 23.2183 2.35771 23.9417 3.08811C24.6651 3.81852 25.0714 4.80916 25.0714 5.84211V8.76316C25.0714 9.79611 24.6651 10.7867 23.9417 11.5172C23.2183 12.2476 22.2373 12.6579 21.2143 12.6579C20.1913 12.6579 19.2102 12.2476 18.4869 11.5172C17.7635 10.7867 17.3571 9.79611 17.3571 8.76316V5.84211ZM21.2143 0C19.6798 0 18.2082 0.615506 17.1232 1.71111C16.0381 2.80672 15.4286 4.29268 15.4286 5.84211V8.76316C15.4286 10.9247 17.3686 12.8446 19.0976 13.8543V34.1337C19.0976 34.9084 19.0976 34.926 19.4268 36.1444C19.9693 36.6922 20.4471 37 21.2143 37C21.9815 37 22.4239 36.6922 22.9665 36.1444C23.1311 34.8431 23.1311 34.8537 23.1311 34.0789L23.2957 13.8543C24.1755 13.3416 25.7175 12.5731 26.2253 11.6848C26.7332 10.7965 27.0003 9.78884 27 8.76316V5.84211C27 4.29268 26.3904 2.80672 25.3054 1.71111C24.2204 0.615506 22.7488 0 21.2143 0ZM20.25 34.0789V14.5244C20.8884 14.6327 21.5402 14.6327 22.1786 14.5244V34.0789C22.1786 34.3372 22.077 34.5848 21.8961 34.7674C21.7153 34.9501 21.47 35.0526 21.2143 35.0526C20.9585 35.0526 20.7133 34.9501 20.5324 34.7674C20.3516 34.5848 20.25 34.3372 20.25 34.0789Z" fill="#7C8950"/>
<path d="M20.25 34.0789V14.5244C20.8884 14.6327 21.5402 14.6327 22.1786 14.5244V34.0789C22.1786 34.3372 22.077 34.5848 21.8961 34.7674C21.7153 34.9501 21.47 35.0526 21.2143 35.0526C20.9585 35.0526 20.7133 34.9501 20.5324 34.7674C20.3516 34.5848 20.25 34.3372 20.25 34.0789Z" fill="#7C8950"/>
<path d="M17.3571 5.84211C17.3571 4.80916 17.7635 3.81852 18.4869 3.08811C19.2102 2.35771 20.1913 1.94737 21.2143 1.94737C22.2373 1.94737 23.2183 2.35771 23.9417 3.08811C24.6651 3.81852 25.0714 4.80916 25.0714 5.84211V8.76316C25.0714 9.79611 24.6651 10.7867 23.9417 11.5172C23.2183 12.2476 22.2373 12.6579 21.2143 12.6579C20.1913 12.6579 19.2102 12.2476 18.4869 11.5172C17.7635 10.7867 17.3571 9.79611 17.3571 8.76316V5.84211Z" fill="#7C8950"/>
<path d="M4.82143 14.6053V34.0789C4.82143 34.3372 4.92302 34.5848 5.10386 34.7674C5.2847 34.9501 5.52997 35.0526 5.78571 35.0526C6.04146 35.0526 6.28673 34.9501 6.46757 34.7674C6.64841 34.5848 6.75 34.3372 6.75 34.0789V14.6053H4.82143Z" fill="#7C8950"/>
</svg>
