<svg width="57" height="57" viewBox="0 0 57 57" fill="none" xmlns="http://www.w3.org/2000/svg">
<path d="M20.6765 30.9255C21.5175 31.6438 22.0735 32.3186 22.0735 32.3186C22.608 32.8512 23.8324 33.7116 24.5882 33.7116H34.3676C35.1235 33.7116 35.7647 33.1544 36.3235 32.5972C36.8823 32.0399 36.6029 32.06 38 30.9255C40.3845 28.9891 40.071 25.3533 40.071 22.4954C41.8223 20.0938 42.7606 17.1987 42.75 14.2298C42.7521 12.0893 42.2687 9.97601 41.3359 8.0479C40.4032 6.1198 39.0452 4.42677 37.3635 3.09537C35.6662 1.74738 33.6825 0.803562 31.5636 0.335916C29.4447 -0.131731 27.2466 -0.110846 25.137 0.396976C22.8397 0.949451 20.7164 2.06266 18.9582 3.63639C17.1999 5.21011 15.862 7.19493 15.0648 9.41215C14.2677 11.6294 14.0363 14.0094 14.3916 16.3379C14.7469 18.6663 15.6776 20.8702 17.1 22.7511C18.1617 25.3533 16.7619 27.5822 20.6765 30.9255ZM37.05 8.0479C37.5589 6.02062 28.1641 11.4851 29.897 10.3085C31.6299 9.13192 27.5384 10.8743 29.6176 11.1443C31.6969 11.4143 33.2744 7.89285 34.647 9.47268C36.0196 11.0525 37.0792 12.1402 37.05 14.2298C37.0543 15.995 36.4954 17.7159 35.454 19.1437C33.4205 21.881 32.081 25.0675 31.5495 28.4319L34.9645 25.3533C34.5182 22.0509 38.6227 22.7154 36.6029 20.0598C35.8175 19.0342 38.2567 18.2596 38 16.9951C37.7433 15.7306 36.7264 9.2971 37.05 8.0479ZM40.3845 36.9532H37.05C36.4913 36.9575 35.9462 37.1254 35.4825 37.436L28.7794 38.6268L21.5175 37.436C21.0538 37.1254 20.5087 36.9575 19.95 36.9532H16.6155C13.6827 36.9413 10.7767 37.5102 8.06628 38.6268C5.35586 39.7434 2.89499 41.3855 0.82654 43.4577C0.562399 43.7231 0.353422 44.0379 0.211593 44.384C0.0697643 44.73 -0.00212696 45.1006 4.1577e-05 45.4744V53.9957C4.1577e-05 54.749 0.300308 55.4715 0.834786 56.0042C1.36926 56.5368 2.09417 56.8361 2.85004 56.8361C3.6059 56.8361 4.19117 56.8361 5.02941 56.8361C6.14705 56.8361 6.98529 56.8361 8.38235 56.8361H10.3382H12.2941C15.6471 56.8361 13.5895 56.8195 17.6029 56.8361H23.75H26.8235C29.2293 56.8361 28.7752 56.8361 29.3382 56.8361C29.9012 56.8361 30.2669 57.1475 30.7353 56.8361H37.05H42.1912C46.2047 56.8195 46.6618 56.8361 51.3 56.8361H54.15C54.15 57.5894 51.6002 55.4715 52.1347 56.0042C52.6692 56.5368 53.3941 56.8361 54.15 56.8361C54.9058 56.8361 55.6307 56.5368 56.1652 56.0042C56.6997 55.4715 56.9999 54.749 56.9999 53.9957V45.4744C57.0021 45.1006 56.9302 44.73 56.7884 44.384C56.6466 44.0379 56.4376 43.7231 56.1734 43.4577C54.105 41.3855 51.6441 39.7434 48.9337 38.6268C46.2233 37.5102 43.3173 36.9413 40.3845 36.9532Z" fill="#7C8950"/>
</svg>
