<svg width="100" height="96" viewBox="0 0 100 96" fill="none" xmlns="http://www.w3.org/2000/svg">
<path d="M57.9257 5.53055C57.7165 5.62025 57.5246 5.74298 57.3578 5.89361L7.95314 53.2902C3.11124 57.7853 0.268152 63.9012 0.0180177 70.3596C-0.232116 76.818 2.13006 83.1192 6.61091 87.9464C8.95767 90.4289 11.8097 92.4241 14.9912 93.8092C18.1727 95.1943 21.6163 95.9398 25.1097 95.9999H25.7464C29.1328 96.0097 32.4876 95.3743 35.6159 94.1306C38.7443 92.887 41.5838 91.0598 43.9698 88.7551L93.8735 40.8964C94.029 40.7481 94.1468 40.5674 94.2177 40.3683C98.2449 35.6169 100.293 29.6026 99.9661 23.4875C99.6394 17.3724 96.961 11.5905 92.4484 7.25874C87.9358 2.92699 81.9093 0.352863 75.5332 0.0336793C69.1572 -0.285505 62.884 1.67291 57.9257 5.53055ZM85.7341 34.7078L50.7327 68.2749L50.5434 68.4399C49.1855 69.6621 47.4187 70.3813 45.5587 70.4689C43.6987 70.5566 41.8668 70.0071 40.3905 68.9185C39.5875 68.2955 38.9258 67.5216 38.4463 66.6442C37.9668 65.7669 37.6795 64.8047 37.6021 63.8169C37.5247 62.8291 37.6589 61.8366 37.9964 60.9004C38.3339 59.9642 38.8676 59.1041 39.5646 58.3731L68.5087 30.5821C69.4762 29.652 70.0189 28.3914 70.0173 27.0776C70.0157 25.7638 69.4699 24.5045 68.5001 23.5766C67.5303 22.6487 66.2158 22.1282 64.8459 22.1298C63.4759 22.1313 62.1628 22.6547 61.1952 23.5848L31.9413 51.6399C31.8363 51.7412 31.7491 51.8583 31.6832 51.9864C28.685 55.2618 27.0999 59.5092 27.2501 63.8653C27.4004 68.2213 29.2747 72.359 32.492 75.4372C34.3517 77.222 36.595 78.5962 39.0655 79.4639L37.0866 81.3617C34.3072 84.0905 30.5595 85.7172 26.5875 85.919C22.6155 86.1208 18.7096 84.8828 15.6452 82.4509C14.0347 81.1201 12.7314 79.4816 11.8188 77.6402C10.9062 75.7988 10.4042 73.795 10.3451 71.757C10.2705 69.7239 10.6322 67.6979 11.4077 65.8044C12.1833 63.9109 13.3561 62.1904 14.8536 60.7495L63.7248 13.8811L64.3615 13.353C67.1845 11.0217 70.789 9.74446 74.5143 9.75531C75.1238 9.7554 75.7328 9.78846 76.3384 9.85433C78.4851 10.0882 80.5561 10.7546 82.4155 11.8097C84.2749 12.8649 85.8808 14.285 87.1279 15.9769C89.1024 18.8026 90.0374 22.1791 89.7849 25.5719C89.5324 28.9647 88.1069 32.1797 85.7341 34.7078Z" fill="#7C8950"/>
</svg>
