<svg width="46" height="40" viewBox="0 0 46 40" fill="none" xmlns="http://www.w3.org/2000/svg">
<path d="M25.909 0C14.9835 0 6.09565 8.6878 5.83019 19.5024V20.0024H0L8.83377 29.5L17.4217 20.0024H10.8542V19.5024C11.1172 11.4463 17.756 5.00244 25.909 5.00244C34.2315 5.00244 40.9785 11.7195 40.9785 20.0024C40.9785 28.2854 34.2315 35.0024 25.909 35.0024C22.7001 35.0043 19.5753 33.9844 16.9941 32.0927L13.5382 35.761C17.0654 38.5119 21.4228 40.005 25.909 40C37.0065 40 46 31.0488 46 20.0024C46 8.9561 37.0065 0 25.909 0Z" fill="#D8A353" fill-opacity="0.7"/>
</svg>
