<svg width="67" height="67" viewBox="0 0 67 67" fill="none" xmlns="http://www.w3.org/2000/svg">
<path d="M28.2217 2.5C42.4274 2.50025 53.9424 14.0152 53.9424 28.2207C53.9423 32.4704 52.8613 36.4326 51.0439 39.9297L62.2598 51.1445L62.2734 51.1592L62.2881 51.1738C63.722 52.6554 64.5165 54.6414 64.5 56.7031C64.4834 58.765 63.6568 60.7379 62.1992 62.1963C60.7415 63.6547 58.7689 64.4824 56.707 64.5C54.6453 64.5176 52.6591 63.7241 51.1768 62.291L51.1611 62.2764L51.1465 62.2617L39.9277 51.0459C36.4331 52.8606 32.4709 53.9413 28.2217 53.9414C14.0159 53.9414 2.50012 42.4262 2.5 28.2207C2.5 14.0151 14.0158 2.5 28.2217 2.5ZM28.2217 14.6445C20.7247 14.6445 14.6445 20.7241 14.6445 28.2207C14.6447 35.7172 20.7247 41.7959 28.2217 41.7959C35.7184 41.7956 41.7977 35.717 41.7979 28.2207C41.7979 20.7243 35.7185 14.6448 28.2217 14.6445Z" fill="#F6F6F1" stroke="#7C8950" stroke-width="5"/>
</svg>
