<svg width="57" height="57" viewBox="0 0 57 57" fill="none" xmlns="http://www.w3.org/2000/svg">
<path d="M55.4916 47.9128L42.9342 35.3559C45.1206 31.8156 46.4424 27.6859 46.4424 23.2205C46.4424 10.3956 36.0465 0 23.2212 0C10.396 0 0 10.3956 0 23.2205C0 36.0453 10.396 46.4409 23.2212 46.4409C27.6868 46.4409 31.8166 45.1192 35.3534 42.9364L47.9143 55.4934C48.9252 56.4708 50.2797 57.0118 51.6858 56.9998C53.0919 56.9878 54.4369 56.4238 55.431 55.4293C56.4251 54.4348 56.9885 53.0895 56.9998 51.6834C57.0112 50.2774 56.4695 48.9232 55.4916 47.9128ZM23.2212 39.2962C14.3436 39.2962 7.14499 32.0978 7.14499 23.2205C7.14499 14.3431 14.3436 7.14476 23.2212 7.14476C32.0989 7.14476 39.2974 14.3431 39.2974 23.2205C39.2974 32.0978 32.0989 39.2962 23.2212 39.2962Z" fill="#7C8950"/>
</svg>
